<svg width="56" height="55" viewBox="0 0 56 55" fill="none" xmlns="http://www.w3.org/2000/svg">
<path d="M47.6695 0.803708C47.3609 0.625676 46.9931 0.574946 46.6466 0.662617C46.3 0.750289 46.0029 0.969223 45.8203 1.27151L36.1489 17.3629C36.0993 17.4464 36.0593 17.535 36.0295 17.6271C34.9474 18.0211 33.9374 18.5846 33.0387 19.2958C30.1083 14.4062 24.7391 11.3274 18.8732 11.3274C9.82213 11.3274 2.45967 18.5482 2.43444 27.4316H0.300903L0.491673 28.9238C1.60183 37.5969 7.04798 45.1724 14.8787 49.1614V54.2825H35.0843C37.6455 54.2825 39.7292 52.2342 39.7292 49.7181V49.162C47.5624 45.1712 53.0061 37.5957 54.1187 28.9238L54.3095 27.4304H50.4566C50.4387 22.8962 47.4781 19.0413 43.36 17.586L55.4264 6.18162C55.9631 5.67453 55.9803 4.83442 55.4621 4.30739C55.3394 4.18191 55.1926 4.08142 55.0303 4.01166C54.868 3.94189 54.6932 3.90422 54.5161 3.9008C54.3389 3.89738 54.1628 3.92827 53.9978 3.9917C53.8328 4.05514 53.6821 4.14988 53.5544 4.27052L40.1132 16.9761C39.9926 16.9713 39.8726 16.958 39.7501 16.958C39.6726 16.958 39.5981 16.9689 39.5218 16.9701L48.1458 2.61992C48.236 2.46995 48.2952 2.30401 48.3201 2.13157C48.3449 1.95913 48.3349 1.78357 48.2907 1.61491C48.2465 1.44626 48.1689 1.28781 48.0623 1.14863C47.9557 1.00944 47.8222 0.892233 47.6695 0.803708ZM18.8726 13.9801C24.04 13.9801 28.7501 16.8371 31.0929 21.3133C30.2388 22.467 29.6332 23.7797 29.3132 25.1711C28.2394 20.4762 23.9698 16.9568 18.8726 16.9568C12.9852 16.9568 8.19567 21.6517 8.17044 27.431H5.13537C5.15998 20.0108 11.3114 13.9801 18.8726 13.9801ZM18.8726 22.5934C16.1464 22.5934 13.928 24.7601 13.9027 27.431H10.872C10.8972 23.1144 14.4744 19.6101 18.8726 19.6101C23.272 19.6101 26.8529 23.1144 26.8757 27.431H23.8412C23.8172 24.7601 21.5987 22.5934 18.8726 22.5934ZM21.1384 27.4316H16.6067C16.6188 26.8485 16.8628 26.2933 17.2866 25.8848C17.7103 25.4763 18.2801 25.2471 18.8738 25.2461C19.4673 25.2472 20.0367 25.4766 20.46 25.8852C20.8833 26.2937 21.1269 26.8488 21.1384 27.4316ZM51.1975 30.0843C49.6966 37.7927 44.3741 44.3643 36.9975 47.512H32.6744V50.1653H36.9686C36.8675 50.5816 36.6267 50.9524 36.2851 51.218C35.9434 51.4837 35.5207 51.6287 35.0849 51.6298H17.5803V50.1653H22.6443V47.512H17.6129C10.2363 44.3661 4.91321 37.7927 3.41106 30.0843H51.1975ZM37.4849 27.4316C37.4968 26.8488 37.7405 26.2938 38.1639 25.8853C38.5873 25.4768 39.1567 25.2474 39.7501 25.2461C40.3441 25.2466 40.9143 25.4757 41.3383 25.8842C41.7624 26.2928 42.0065 26.8483 42.0184 27.4316H37.4849ZM39.7501 19.6107C44.1514 19.6107 47.7335 23.115 47.7569 27.4316H44.7206C44.696 24.7607 42.4769 22.594 39.7501 22.594C37.024 22.594 34.8074 24.7607 34.7827 27.4316H31.7495C31.7741 23.115 35.3514 19.6107 39.7501 19.6107Z" fill="#F9F9F7"/>
<path d="M39.1742 42.9137C39.3902 42.9137 39.6086 42.8635 39.8098 42.7565C41.4592 41.8894 42.9066 40.6944 44.0599 39.2477C45.2131 37.801 46.047 36.1342 46.5083 34.3536C46.5525 34.1846 46.5623 34.0086 46.5371 33.8358C46.5119 33.663 46.4522 33.4968 46.3615 33.3468C46.2708 33.1967 46.1507 33.0657 46.0083 32.9612C45.8659 32.8568 45.704 32.781 45.5317 32.7382C45.3594 32.6954 45.1802 32.6865 45.0043 32.7118C44.8285 32.7372 44.6595 32.7964 44.507 32.8861C44.3546 32.9757 44.2216 33.0941 44.1158 33.2343C44.01 33.3745 43.9334 33.5339 43.8905 33.7033C43.5222 35.1264 42.8561 36.4586 41.9346 37.6149C41.0131 38.7712 39.8565 39.7263 38.5385 40.4193C38.2727 40.5583 38.0618 40.7805 37.9396 41.0508C37.8173 41.321 37.7906 41.6237 37.8637 41.9105C37.9368 42.1974 38.1055 42.452 38.343 42.6338C38.5805 42.8156 38.8731 42.9141 39.1742 42.9137Z" fill="#F9F9F7"/>
<path d="M35.9059 45.0061C36.7902 45.0061 37.5071 44.302 37.5071 43.4335C37.5071 42.5649 36.7902 41.8608 35.9059 41.8608C35.0215 41.8608 34.3046 42.5649 34.3046 43.4335C34.3046 44.302 35.0215 45.0061 35.9059 45.0061Z" fill="#F9F9F7"/>
</svg>
